<svg width="40" height="40" viewBox="0 0 40 40" fill="none" xmlns="http://www.w3.org/2000/svg">
<mask id="mask0_94_3370" style="mask-type:alpha" maskUnits="userSpaceOnUse" x="0" y="0" width="40" height="40">
<rect width="40" height="40" fill="#D9D9D9"/>
</mask>
<g mask="url(#mask0_94_3370)">
<path d="M22.9167 21.1859C21.7522 21.1859 20.7666 20.7826 19.96 19.976C19.1534 19.1694 18.7501 18.1838 18.7501 17.0193C18.7501 15.8548 19.1534 14.8692 19.96 14.0626C20.7666 13.256 21.7522 12.8527 22.9167 12.8527C24.0812 12.8527 25.0668 13.256 25.8734 14.0626C26.68 14.8692 27.0833 15.8548 27.0833 17.0193C27.0833 18.1838 26.68 19.1694 25.8734 19.976C25.0668 20.7826 24.0812 21.1859 22.9167 21.1859ZM11.9231 26.3461C11.0946 26.3461 10.3854 26.0511 9.79534 25.4611C9.20534 24.8711 8.91034 24.1619 8.91034 23.3333V10.7052C8.91034 9.87667 9.20534 9.16741 9.79534 8.57738C10.3854 7.98738 11.0946 7.69238 11.9231 7.69238H33.9102C34.7387 7.69238 35.448 7.98738 36.038 8.57738C36.628 9.16741 36.923 9.87667 36.923 10.7052V23.3333C36.923 24.1619 36.628 24.8711 36.038 25.4611C35.448 26.0511 34.7387 26.3461 33.9102 26.3461H11.9231ZM14.4231 23.8462H31.4103C31.4103 23.015 31.7053 22.3051 32.2953 21.7164C32.8853 21.1277 33.5946 20.8334 34.4231 20.8334V13.2051C33.5919 13.2051 32.882 12.9101 32.2933 12.3201C31.7046 11.7301 31.4103 11.0208 31.4103 10.1923H14.4231C14.4231 11.0235 14.1281 11.7335 13.5381 12.3221C12.9481 12.9108 12.2388 13.2051 11.4103 13.2051V20.8334C12.2415 20.8334 12.9514 21.1284 13.5401 21.7184C14.1288 22.3084 14.4231 23.0177 14.4231 23.8462ZM6.08988 32.1794C5.26135 32.1794 4.55209 31.8844 3.96209 31.2944C3.37209 30.7044 3.07709 29.9951 3.07709 29.1666V13.9103C3.07709 13.5561 3.19692 13.2593 3.43659 13.0197C3.67628 12.7801 3.97328 12.6603 4.32759 12.6603C4.68192 12.6603 4.97874 12.7801 5.21805 13.0197C5.45735 13.2593 5.577 13.5561 5.577 13.9103V29.1666C5.577 29.2948 5.63043 29.4124 5.7373 29.5192C5.84413 29.6261 5.96166 29.6795 6.08988 29.6795H30.7051C31.0593 29.6795 31.3561 29.7993 31.5957 30.039C31.8353 30.2787 31.9551 30.5757 31.9551 30.93C31.9551 31.2843 31.8353 31.5811 31.5957 31.8204C31.3561 32.0598 31.0593 32.1794 30.7051 32.1794H6.08988ZM11.9231 23.8462H11.4103V10.1923H11.9231C11.7842 10.1923 11.664 10.2431 11.5625 10.3446C11.461 10.4461 11.4103 10.5663 11.4103 10.7052V23.3333C11.4103 23.4722 11.461 23.5924 11.5625 23.6939C11.664 23.7955 11.7842 23.8462 11.9231 23.8462Z" fill="url(#paint0_linear_94_3370)"/>
</g>
<defs>
<linearGradient id="paint0_linear_94_3370" x1="20" y1="7.69238" x2="20" y2="32.1794" gradientUnits="userSpaceOnUse">
<stop stop-color="#0000FF"/>
<stop offset="1" stop-color="#4D4DFF"/>
</linearGradient>
</defs>
</svg>
