<svg width="40" height="40" viewBox="0 0 40 40" fill="none" xmlns="http://www.w3.org/2000/svg">
<mask id="mask0_94_3376" style="mask-type:alpha" maskUnits="userSpaceOnUse" x="0" y="0" width="40" height="40">
<rect width="40" height="40" fill="#D9D9D9"/>
</mask>
<g mask="url(#mask0_94_3376)">
<path d="M35.8333 10.5128V29.4871C35.8333 30.329 35.5416 31.0416 34.9583 31.6249C34.3749 32.2083 33.6623 32.4999 32.8204 32.4999H7.17952C6.33763 32.4999 5.62502 32.2083 5.04169 31.6249C4.45835 31.0416 4.16669 30.329 4.16669 29.4871V10.5128C4.16669 9.67095 4.45835 8.95833 5.04169 8.375C5.62502 7.79167 6.33763 7.5 7.17952 7.5H32.8204C33.6623 7.5 34.3749 7.79167 34.9583 8.375C35.5416 8.95833 35.8333 9.67095 35.8333 10.5128ZM6.66665 14.0064H33.3333V10.5128C33.3333 10.3846 33.2799 10.2671 33.1731 10.1602C33.0662 10.0534 32.9487 9.99996 32.8204 9.99996H7.17952C7.0513 9.99996 6.93376 10.0534 6.8269 10.1602C6.72006 10.2671 6.66665 10.3846 6.66665 10.5128V14.0064ZM6.66665 19.3268V29.4871C6.66665 29.6153 6.72006 29.7328 6.8269 29.8397C6.93376 29.9465 7.0513 30 7.17952 30H32.8204C32.9487 30 33.0662 29.9465 33.1731 29.8397C33.2799 29.7328 33.3333 29.6153 33.3333 29.4871V19.3268H6.66665Z" fill="url(#paint0_linear_94_3376)"/>
</g>
<defs>
<linearGradient id="paint0_linear_94_3376" x1="20" y1="7.5" x2="20" y2="32.4999" gradientUnits="userSpaceOnUse">
<stop stop-color="#0000FF"/>
<stop offset="1" stop-color="#4D4DFF"/>
</linearGradient>
</defs>
</svg>
