<svg width="40" height="40" viewBox="0 0 40 40" fill="none" xmlns="http://www.w3.org/2000/svg">
<mask id="mask0_94_3382" style="mask-type:alpha" maskUnits="userSpaceOnUse" x="0" y="0" width="40" height="40">
<rect width="40" height="40" fill="#D9D9D9"/>
</mask>
<g mask="url(#mask0_94_3382)">
<path d="M26.6666 22.4999C27.3888 22.4999 27.9861 22.2638 28.4583 21.7915C28.9305 21.3193 29.1666 20.7221 29.1666 19.9999C29.1666 19.2777 28.9305 18.6804 28.4583 18.2082C27.9861 17.736 27.3888 17.4999 26.6666 17.4999C25.9444 17.4999 25.3472 17.736 24.8749 18.2082C24.4027 18.6804 24.1666 19.2777 24.1666 19.9999C24.1666 20.7221 24.4027 21.3193 24.8749 21.7915C25.3472 22.2638 25.9444 22.4999 26.6666 22.4999ZM8.84615 34.1665C8.00426 34.1665 7.29165 33.8748 6.70831 33.2915C6.12498 32.7082 5.83331 31.9956 5.83331 31.1537V8.84609C5.83331 8.0042 6.12498 7.29159 6.70831 6.70825C7.29165 6.12492 8.00426 5.83325 8.84615 5.83325H31.1537C31.9956 5.83325 32.7082 6.12492 33.2916 6.70825C33.8749 7.29159 34.1666 8.0042 34.1666 8.84609V13.3813H31.6666V8.84609C31.6666 8.6965 31.6185 8.57363 31.5224 8.47746C31.4262 8.38129 31.3033 8.33321 31.1537 8.33321H8.84615C8.69656 8.33321 8.57369 8.38129 8.47752 8.47746C8.38135 8.57363 8.33327 8.6965 8.33327 8.84609V31.1537C8.33327 31.3033 8.38135 31.4261 8.47752 31.5223C8.57369 31.6185 8.69656 31.6665 8.84615 31.6665H31.1537C31.3033 31.6665 31.4262 31.6185 31.5224 31.5223C31.6185 31.4261 31.6666 31.3033 31.6666 31.1537V26.6184H34.1666V31.1537C34.1666 31.9956 33.8749 32.7082 33.2916 33.2915C32.7082 33.8748 31.9956 34.1665 31.1537 34.1665H8.84615ZM22.1795 27.4998C21.3376 27.4998 20.625 27.2082 20.0416 26.6248C19.4583 26.0415 19.1666 25.3289 19.1666 24.487V15.5128C19.1666 14.6709 19.4583 13.9583 20.0416 13.3749C20.625 12.7916 21.3376 12.4999 22.1795 12.4999H32.8204C33.6623 12.4999 34.3749 12.7916 34.9582 13.3749C35.5416 13.9583 35.8332 14.6709 35.8332 15.5128V24.487C35.8332 25.3289 35.5416 26.0415 34.9582 26.6248C34.3749 27.2082 33.6623 27.4998 32.8204 27.4998H22.1795Z" fill="url(#paint0_linear_94_3382)"/>
</g>
<defs>
<linearGradient id="paint0_linear_94_3382" x1="20.8333" y1="5.83325" x2="20.8333" y2="34.1665" gradientUnits="userSpaceOnUse">
<stop stop-color="#0000FF"/>
<stop offset="1" stop-color="#4D4DFF"/>
</linearGradient>
</defs>
</svg>
