<svg width="40" height="41" viewBox="0 0 40 41" fill="none" xmlns="http://www.w3.org/2000/svg">
<path d="M0.490973 18.6247L15.0609 0.801627C16.3535 -0.779575 18.914 0.135222 18.914 2.17823V10.581C18.914 11.0513 18.7615 11.509 18.4796 11.8853L13.4433 18.6062C12.8324 19.4213 12.8692 20.5517 13.5318 21.3253L18.3911 26.9994C18.7285 27.3934 18.914 27.8952 18.914 28.4141V37.8243C18.914 39.8673 16.3535 40.7821 15.0609 39.2009L0.490973 21.3779C-0.163658 20.5771 -0.163658 19.4255 0.490973 18.6247Z" fill="#0082C6"/>
<path d="M39.509 18.6247L24.9391 0.801627C23.6465 -0.779575 21.086 0.135222 21.086 2.17823V10.581C21.086 11.0513 21.2385 11.509 21.5204 11.8853L26.5567 18.6062C27.1676 19.4213 27.1308 20.5517 26.4682 21.3253L21.6089 26.9994C21.2715 27.3934 21.086 27.8952 21.086 28.4141V37.8243C21.086 39.8673 23.6465 40.7821 24.9391 39.2009L39.509 21.3779C40.1637 20.5771 40.1637 19.4255 39.509 18.6247Z" fill="#242A56"/>
</svg>
