<svg width="71" height="27" viewBox="0 0 71 27" fill="none" xmlns="http://www.w3.org/2000/svg">
<g filter="url(#filter0_i_102_3439)">
<path d="M7.86331 26.6536L13.0959 0.53418L2.19345e-05 10.1609L7.86331 26.6536Z" fill="#0000FF" fill-opacity="0.7"/>
</g>
<path d="M19.5834 26.5525L24.8044 0.447512H35.3582C38.6151 0.447512 41.1262 1.16851 42.8914 2.6105C44.6814 4.02762 45.5765 6.01657 45.5765 8.57735C45.5765 10.7652 45.0668 12.6796 44.0475 14.3204C43.0281 15.9365 41.5613 17.1796 39.6469 18.0497C37.7574 18.9199 35.5074 19.355 32.8969 19.355H24.4314L27.6386 16.5953L25.6621 26.5525H19.5834ZM27.4895 17.3039L25.3638 14.4323H33.158C35.1469 14.4323 36.6883 13.9848 37.7823 13.0898C38.9011 12.1699 39.4604 10.8398 39.4604 9.09945C39.4604 7.83149 39.0378 6.89917 38.1925 6.30249C37.3472 5.68094 36.1538 5.37017 34.6124 5.37017H27.2657L30.4729 2.42403L27.4895 17.3039Z" fill="#0000FF"/>
<path d="M56.3004 27C54.8833 27 53.5035 26.8633 52.1609 26.5898C50.8433 26.3412 49.6375 25.9931 48.5435 25.5456C47.4745 25.0981 46.567 24.6133 45.8212 24.0912L48.2825 19.4296C49.1029 20.0014 49.9731 20.4986 50.893 20.9213C51.8377 21.3191 52.8198 21.6298 53.8391 21.8536C54.8585 22.0525 55.8778 22.1519 56.8971 22.1519C58.0159 22.1519 58.9731 22.0276 59.7687 21.779C60.5891 21.5304 61.2107 21.1823 61.6333 20.7348C62.0808 20.2873 62.3046 19.7403 62.3046 19.0939C62.3046 18.4972 62.0684 18.0124 61.596 17.6395C61.1237 17.2666 60.5021 16.9558 59.7314 16.7072C58.9855 16.4337 58.1527 16.1727 57.2328 15.924C56.3129 15.6754 55.3806 15.3895 54.4358 15.0663C53.5159 14.7182 52.6706 14.2956 51.8999 13.7983C51.154 13.2762 50.5449 12.6174 50.0725 11.8218C49.6002 11.0262 49.364 10.0318 49.364 8.8384C49.364 7.04834 49.8488 5.49447 50.8184 4.1768C51.8129 2.85912 53.2051 1.83978 54.9952 1.11878C56.7853 0.372928 58.8861 0 61.2977 0C63.0629 0 64.7286 0.198895 66.2949 0.596684C67.8612 0.969612 69.2038 1.51657 70.3225 2.23757L68.0477 6.86188C67.0532 6.19061 65.9469 5.69337 64.7286 5.37017C63.5104 5.0221 62.2549 4.84807 60.9621 4.84807C59.7935 4.84807 58.7866 4.98481 57.9413 5.25829C57.1209 5.53177 56.4869 5.91713 56.0394 6.41436C55.6167 6.88674 55.4054 7.4337 55.4054 8.05525C55.4054 8.6768 55.6292 9.18646 56.0767 9.58425C56.5491 9.95718 57.1706 10.2804 57.9413 10.5539C58.712 10.8025 59.5574 11.0511 60.4772 11.2997C61.3971 11.5483 62.317 11.8343 63.2369 12.1575C64.1568 12.4807 65.0021 12.8909 65.7728 13.3881C66.5435 13.8854 67.1651 14.5193 67.6375 15.2901C68.1098 16.0359 68.346 16.9807 68.346 18.1243C68.346 19.9144 67.8488 21.4807 66.8543 22.8232C65.8598 24.1409 64.4551 25.1727 62.6402 25.9185C60.8502 26.6395 58.7369 27 56.3004 27Z" fill="#0000FF"/>
<path d="M14.2233 26.567L19.4559 0.44751L6.36001 10.0743L14.2233 26.567Z" fill="#0000FF"/>
<defs>
<filter id="filter0_i_102_3439" x="0" y="0.53418" width="13.0959" height="26.1194" filterUnits="userSpaceOnUse" color-interpolation-filters="sRGB">
<feFlood flood-opacity="0" result="BackgroundImageFix"/>
<feBlend mode="normal" in="SourceGraphic" in2="BackgroundImageFix" result="shape"/>
<feColorMatrix in="SourceAlpha" type="matrix" values="0 0 0 0 0 0 0 0 0 0 0 0 0 0 0 0 0 0 127 0" result="hardAlpha"/>
<feOffset/>
<feGaussianBlur stdDeviation="4.5"/>
<feComposite in2="hardAlpha" operator="arithmetic" k2="-1" k3="1"/>
<feColorMatrix type="matrix" values="0 0 0 0 0 0 0 0 0 0 0 0 0 0 0 0 0 0 0.54 0"/>
<feBlend mode="normal" in2="shape" result="effect1_innerShadow_102_3439"/>
</filter>
</defs>
</svg>
